<svg xmlns="http://www.w3.org/2000/svg" xmlns:xlink="http://www.w3.org/1999/xlink" viewBox="0 0 51 76" fill="#fff" fill-rule="evenodd" stroke="#000" stroke-linecap="round" stroke-linejoin="round"><style><![CDATA[.B{fill-rule:nonzero}.C{stroke-width:.083}.D{fill:url(#S)}.E{fill:url(#T)}.F{stroke-linejoin:miter}.G{stroke:none}.H{fill:url(#W)}.I{fill:url(#K)}]]></style><use xlink:href="#p" x=".5" y=".5"/><defs><linearGradient id="A" y2="50.00%" x2="100.00%" y1="50.00%" x1="-0.00%"><stop stop-color="#ddd2c3" offset="4.5%"/><stop stop-color="#959d9f" offset="100%"/></linearGradient><linearGradient id="B" y2="50.02%" x2="100.00%" y1="50.02%" x1="0.00%"><stop stop-color="#a29789" offset="0%"/><stop stop-color="#858178" offset="100%"/></linearGradient><linearGradient id="C" y2="106.68%" x2="83.23%" y1="17.63%" x1="19.63%"><stop stop-color="#4a3e41" offset="4.5%"/><stop stop-color="#736c67" offset="100%"/></linearGradient><linearGradient id="D" y2="50.00%" x2="100.00%" y1="50.00%" x1="-0.00%"><stop stop-color="#b6a08e" offset="6.2%"/><stop stop-color="#a29789" offset="96.6%"/></linearGradient><linearGradient id="E" y2="50.00%" x2="100.00%" y1="50.00%" x1="-0.00%"><stop stop-color="#4a3e41" offset="4.5%"/><stop stop-color="#736c67" offset="100%"/></linearGradient><linearGradient id="F" y2="50.00%" x2="100.01%" y1="50.00%" x1="0.00%"><stop stop-color="#4a3e41" offset="4.5%"/><stop stop-color="#736c67" offset="100%"/></linearGradient><linearGradient id="G" y2="49.99%" x2="99.99%" y1="49.99%" x1="-0.01%"><stop stop-color="#b6a08e" offset="6.2%"/><stop stop-color="#a29789" offset="96.6%"/></linearGradient><linearGradient id="H" y2="50.04%" x2="99.98%" y1="50.04%" x1="0.01%"><stop stop-color="#4a3e41" offset="4.5%"/><stop stop-color="#736c67" offset="100%"/></linearGradient><linearGradient id="I" y2="-43.45%" x2="78.15%" y1="158.19%" x1="17.02%"><stop stop-color="#4a3e41" offset="4.5%"/><stop stop-color="#736c67" offset="100%"/></linearGradient><linearGradient id="J" y2="81.28%" x2="26.40%" y1="16.69%" x1="78.51%"><stop stop-color="#fbe36b" offset="21.4%"/><stop stop-color="#f0cc3c" offset="56.2%"/><stop stop-color="#d3b43c" offset="83.7%"/><stop stop-color="#c3a53b" offset="92.1%"/><stop stop-color="#aa9138" offset="100%"/></linearGradient><linearGradient id="K" y2="49.99%" x2="100.00%" y1="49.99%" x1="-0.01%"><stop stop-color="#4a3e41" offset="4.5%"/><stop stop-color="#31321e" offset="100%"/></linearGradient><linearGradient id="L" y2="50.00%" x2="100.00%" y1="50.00%" x1="0.01%"><stop stop-color="#3d3f32" offset="6.2%"/><stop stop-color="#70706b" offset="37.6%"/><stop stop-color="#888982" offset="70.8%"/><stop stop-color="#9d9d96" offset="100%"/></linearGradient><linearGradient id="M" y2="50.00%" x2="99.99%" y1="50.00%" x1="-0.01%"><stop stop-color="#b0b4c2" offset="6.2%"/><stop stop-color="#a9a9a1" offset="94.4%"/></linearGradient><linearGradient id="N" y2="50.01%" x2="99.98%" y1="50.01%" x1="-0.00%"><stop stop-color="#9d978f" offset="4.5%"/><stop stop-color="#6c6b68" offset="100%"/></linearGradient><linearGradient id="O" y2="50.00%" x2="100.00%" y1="50.00%" x1="-0.00%"><stop stop-color="#6e7275" offset="6.2%"/><stop stop-color="#575654" offset="98.9%"/></linearGradient><linearGradient id="P" y2="50.00%" x2="100.00%" y1="50.00%" x1="0.00%"><stop stop-color="#b0b4c2" offset="6.2%"/><stop stop-color="#a9a9a1" offset="94.4%"/></linearGradient><linearGradient id="Q" y2="50.00%" x2="100.00%" y1="50.00%" x1="0.00%"><stop stop-color="#8c8f97" offset="10.1%"/><stop stop-color="#6e7275" offset="94.4%"/></linearGradient><linearGradient id="R" y2="49.93%" x2="99.99%" y1="49.93%" x1="-0.02%"><stop stop-color="#4a3e41" offset="4.5%"/><stop stop-color="#31321e" offset="100%"/></linearGradient><linearGradient id="S" y2="50.02%" x2="100.05%" y1="50.02%" x1="-0.01%"><stop stop-color="#4a3e41" offset="4.5%"/><stop stop-color="#31321e" offset="100%"/></linearGradient><linearGradient id="T" y2="50.00%" x2="100.06%" y1="50.00%" x1="0.02%"><stop stop-color="#4a3e41" offset="4.5%"/><stop stop-color="#31321e" offset="100%"/></linearGradient><linearGradient id="U" y2="50.04%" x2="99.96%" y1="50.04%" x1="-0.06%"><stop stop-color="#4a3e41" offset="4.5%"/><stop stop-color="#31321e" offset="100%"/></linearGradient><linearGradient id="V" y2="81.60%" x2="109.21%" y1="13.61%" x1="-2.99%"><stop stop-color="#4a3e41" offset="4.5%"/><stop stop-color="#31321e" offset="100%"/></linearGradient><linearGradient id="W" y2="49.98%" x2="100.01%" y1="49.98%" x1="0.00%"><stop stop-color="#4a3e41" offset="4.5%"/><stop stop-color="#31321e" offset="100%"/></linearGradient><linearGradient id="X" y2="49.93%" x2="99.99%" y1="49.93%" x1="0.03%"><stop stop-color="#4a3e41" offset="4.5%"/><stop stop-color="#31321e" offset="100%"/></linearGradient><linearGradient id="Y" y2="50.02%" x2="99.98%" y1="50.02%" x1="0.01%"><stop stop-color="#4a3e41" offset="4.5%"/><stop stop-color="#31321e" offset="100%"/></linearGradient><linearGradient id="Z" y2="92.22%" x2="105.52%" y1="10.52%" x1="-14.10%"><stop stop-color="#4a3e41" offset="4.5%"/><stop stop-color="#31321e" offset="100%"/></linearGradient><linearGradient id="a" y2="50.00%" x2="-0.00%" y1="50.00%" x1="100.00%"><stop stop-color="#fbe36b" offset="21.4%"/><stop stop-color="#f0cc3c" offset="70.2%"/><stop stop-color="#d3b43c" offset="100%"/></linearGradient><linearGradient id="b" y2="50.00%" x2="100.00%" y1="50.00%" x1="0.00%"><stop stop-color="#ddd2c3" offset="4.5%"/><stop stop-color="#ebe2d1" offset="100%"/></linearGradient><linearGradient id="c" y2="50.00%" x2="100.01%" y1="50.00%" x1="0.01%"><stop stop-color="#50535b" offset="1.1%"/><stop stop-color="#2a3349" offset="100%"/></linearGradient><linearGradient id="d" y2="50.00%" x2="-0.00%" y1="50.00%" x1="99.99%"><stop stop-color="#f0cc3c" offset="11.2%"/><stop stop-color="#d3b43c" offset="100%"/></linearGradient><linearGradient id="e" y2="50.00%" x2="99.99%" y1="50.00%" x1="-0.01%"><stop stop-color="#ddd2c3" offset="4.5%"/><stop stop-color="#ebe2d1" offset="100%"/></linearGradient><linearGradient id="f" y2="50.00%" x2="100.01%" y1="50.00%" x1="0.00%"><stop stop-color="#9d978f" offset="4.5%"/><stop stop-color="#b3afaa" offset="100%"/></linearGradient><linearGradient id="g" y2="49.99%" x2="100.00%" y1="49.99%" x1="0.01%"><stop stop-color="#a4a4a2" offset="4.5%"/><stop stop-color="#818188" offset="100%"/></linearGradient><linearGradient id="h" y2="50.00%" x2="100.00%" y1="50.00%" x1="-0.00%"><stop stop-color="#545055" offset="1.1%"/><stop stop-color="#413643" offset="43.3%"/><stop stop-color="#362d2b" offset="100%"/></linearGradient><linearGradient id="i" y2="122.18%" x2="93.84%" y1="-30.51%" x1="13.83%"><stop stop-color="#9eb2d4" offset="1.1%"/><stop stop-color="#c8d6e8" offset="29.8%"/><stop stop-color="#8196bb" offset="57.3%"/><stop stop-color="#616a75" offset="100%"/></linearGradient><linearGradient id="j" y2="50.00%" x2="100.00%" y1="50.00%" x1="0.01%"><stop stop-color="#545055" offset="1.1%"/><stop stop-color="#413643" offset="43.3%"/><stop stop-color="#362d2b" offset="100%"/></linearGradient><linearGradient id="k" y2="50.00%" x2="100.00%" y1="50.00%" x1="-0.00%"><stop stop-color="#31321e" offset="6.2%"/><stop stop-color="#273119" offset="98.9%"/></linearGradient><linearGradient id="l" y2="50.01%" x2="99.99%" y1="50.01%" x1="-0.00%"><stop stop-color="#f0cc3c" offset="5.6%"/><stop stop-color="#d3b43c" offset="100%"/></linearGradient><linearGradient id="m" y2="50.00%" x2="100.00%" y1="50.00%" x1="-0.00%"><stop stop-color="#959d9f" offset="1.1%"/><stop stop-color="#a3b5d9" offset="100%"/></linearGradient><linearGradient id="n" y2="49.99%" x2="99.98%" y1="49.99%" x1="-0.02%"><stop stop-color="#ddd2c3" offset="4.5%"/><stop stop-color="#ebe2d1" offset="100%"/></linearGradient><linearGradient id="o" y2="50.00%" x2="99.97%" y1="50.00%" x1="-0.04%"><stop stop-color="#2e2e28" offset="4.5%"/><stop stop-color="#373330" offset="100%"/></linearGradient></defs><symbol id="p" overflow="visible"><g class="F"><g class="B C"><path d="M11.129 9.239l3.417-.824 1.884 3.063-4.123-.237z" fill="url(#A)"/><path d="M7.975 66.616c-.549-.038-1.657-.457-2.049-.499s-1.203-.019-1.203-.019-.766.129-.756.415.151.823.527.909.655-.098.945-.04l2.668.508 2.24-1.178c0 .003-1.821-.055-2.372-.094z" fill="url(#B)"/><path d="M4.135 66.417c-.607-.039-.997.215-1.411.463-.565.338-.718.624-.612.642.112.018.956-.511 1.637-.307s1.448-.557.386-.798z" fill="url(#C)"/><path d="M22.356 58.116l-8.517 5.614c-.667.353-1.059.666-1.491.9s-2.475 1.808-3.14 2.201-1.414.824-2.2.941-2.237-.04-2.709.236.118 1.374.668 1.413 2.001.235 2.788.119 3.649-2.005 3.649-2.005.669-.589 1.021-.705.983-.315 1.1-.04-.08 1.177-.117 1.57-.22 2.236.015 2.315.259.332.651.41.746-.291.903-.488.12-2.12.353-2.355.393-.235.747-.235 1.454.274 1.727.312.59-.234.551-.431-1.925-1.216-2.513-1.647-.236-.943.078-1.258 7.106-5.418 7.381-5.496l2.983-.981-3.93-.391z" fill="url(#D)"/><path d="M4.378 68.362c-.236-.111-.472-.237-.982.079s-1.216 1.766-1.021 1.766.746-.902 1.176-1.099c.435-.197.756-.076.983-.197s.081-.44-.156-.551z" fill="url(#E)"/><path d="M13.619 70.397c-.196.363-.205 1.021-.156 1.296s.156.785.362.823.13-.681.19-1.237c.087-.796.582-.738.526-1.118s-.634-.367-.922.235z" fill="url(#F)"/><path d="M32.84 58.037l.354 1.454c.079.432-.04 1.257-.197 1.886s-1.412 3.846-1.648 4.238-1.491 1.099-1.808 1.453-.352.824-.549 1.099-1.569 1.453-2.081 1.532-2.786.04-3.257.04-1.217 0-1.454.312-.395.865-.235 1.139.513.196.747.196 2.59-.392 3.102-.392 1.844.158 1.844.158-1.884.943-2.199 1.297-.392.94-.196 1.177 1.215.312 1.571.155 2.238-1.608 2.591-1.923l1.728-1.688s.743 1.296 1.098 1.412 1.65.039 2.042 0 .982.119 1.178.039.629-.666.548-.862-.392-.393-.628-.55-2.118-.354-2.315-.627-.195-1.767-.236-2.081.196-2.041.313-2.317l1.886-4.476c.195-.47 1.02-1.569 1.02-1.569l-1.53-1.532-1.686.434z" fill="url(#G)"/><g fill="url(#H)"><path d="M19.297 71.776c-.117-.038 1.137-1.609 1.57-1.727s1.611.081 1.805.119.198.316.08.393-1.296-.158-1.768.076-1.569 1.178-1.686 1.139z"/><path d="M24.045 74.761c-.195-.079.354-1.179.589-1.414s.863-.824 1.06-.745.708.39.471.51-.943.313-1.295.706-.629 1.021-.826.942z"/><path d="M35.04 70.719c-.196.116-.275.508-.158.627s.824.196.982.431.471 1.374.628 1.374-.117-1.335-.313-1.647c-.198-.317-.945-.906-1.139-.786z"/></g><path d="M17.754 67.662c-.103.171-.004.476.134.502s.721-.245.937-.155.922.724 1.046.654-.634-.862-.914-.988-1.1-.184-1.205-.014z" fill="url(#I)"/></g><path d="M27.658 71.15s.862-.512 1.335-.982.825-.981.825-.981" stroke-linecap="butt" fill="none" class="C"/><g class="B"><path d="M26.598 58.429s1.728 1.336 2.827 1.808 1.647.785 2.356.47.785-1.177 1.021-1.491.392-1.572.392-1.572l-6.596.784z" fill="#29211a" class="C"/><path d="M5.949 22.784c-1.884 1.1-4.084 5.496-4.084 10.836.157 6.594 7.38 18.371 12.406 21.356 2.229 1.847 4.709 2.828 7.31 3.323.079.017-.077.267.002.28 1.041.187 1.709.391 3.052.478.265.017.881-.388 1.139-.381 3.527.122 5.457-.248 5.457-.248s-6.282-1.882-5.499-2.511 1.886.156 2.669-.314.788-1.412 1.573-1.885 1.57.315 2.511-.628 1.099-4.868 1.099-4.868-.312-1.1-1.099-.785-1.414 2.197-1.414 2.197-1.883-.784-1.568-1.57 1.568-.469 1.883-1.412-2.985-2.199-2.512-2.512 1.886-.629 2.041-1.57-1.571-1.101-1.413-1.57 1.099-1.258 1.257-1.885-.472-.314-1.571-1.257-6.282-12.404-7.851-13.034-13.506-3.142-15.389-2.042z" fill="url(#J)" class="C"/></g></g><path d="M22.202 35.74c.005.057.029.098.074.126-.593.077-1.624-.461-1.377.691.113.529.54.564.838.949.304.391.156.54.084.968-.186 1.107 1.004.991 1.763 1.234.489.158.68.619 1.21.629.486.01.786-.341 1.299-.219.26.065.971.454 1.247.198.333-.309-.055-.864-.313-1.018-.271-.161-.511-.113-.82-.145-.459-.048-.564-.318-.938-.479-.618-.264-1.296.264-1.769-.254-.167-.181-.375-.6-.45-.824-.082-.251-.274-.775-.259-1.033l-.588-.823z" class="B G I"/><g class="C F"><path d="M45.851 58.365l-.568-2.839-3.298-1.649-7.927 4.005 2.276 1.963c.941.862 5.102 9.657 5.967 10.914s2.278 2.197 2.983 1.962.708 0 .708 0 1.413 1.412 2.589 1.178c.612-.122.968-.624 1.138-1.341l-3.867-14.192z" fill="url(#L)" class="B"/><path d="M49.76 70.129c-.235-1.886-1.413-5.654-1.884-7.303s-1.963-7.223-2.669-8.166c-.053-.068-.428.708-.474.628 1.731 5.183 2.71 12.956 4.985 17.268.159-.666.157-1.518.042-2.425z" fill="url(#M)" class="B"/><path d="M27.149 15.952c.115.942.47 3.415.824 4.475s3.094 3.545 3.094 3.545l-6.628 1.165-2.355-3.652 2.947-6.948 1.176-.471c-.003.001.82.944.942 1.886z" fill="url(#N)" class="B"/><path d="M43.244 55.288s1.335.472 2.355 1.1 3.218 2.513 3.218 2.513l-1.098-3.533-3.453-4.163-.551 1.651-1.729 1.02 1.258 1.412z" fill="#29211a" class="B"/><path d="M23.104 24.792s1.796-1.034 3.272-1.089 3.035-.263 4.69.27 4.893 4.731 5.943 5.618l3.273 2.836c.685.799 2.275 3.41 2.617 3.872s.887 2.217.654 2.399-.819-.11-.819-.11.497 1.202 1.093 1.965 2.14 3.307 2.505 3.761.93 1.419.93 1.419l1.689 2.455c.337.428.602 1.458.274 1.689s-1.2-1.689-1.2-1.689l-1.256-1.473.71 3.707c.083.783-.117 1.957.217 2.508s1.759 3.288 1.637 3.49-.765-.274-.765-.274l.601 2.51c.118.637-.111 1.744-.111 1.744l-.543-1.744-2.291-4.471c-.707-1.173-1.964-2.453-1.964-2.453l-5.649-4.136-7.38-12.014-8.123-10.789z" fill="url(#O)" class="B"/><path d="M29.189 37.858c1.099.943 1.727.629 1.571 1.256S29.659 40.527 29.504 41s1.568.628 1.412 1.57-1.571 1.254-2.041 1.57 2.826 1.57 2.512 2.512-1.57.627-1.883 1.412 1.568 1.57 1.568 1.57.629-1.883 1.414-2.197 1.099.785 1.099.785-.157 3.925-1.099 4.868-1.726.158-2.511.628-.785 1.413-1.573 1.885-1.882-.315-2.669.314 5.499 2.511 5.499 2.511l9.42-.939c1.266-.36 3.455-2.358 3.455-2.358s-1.578-.65-1.256-1.097 1.362-.456 1.414-.943.505-1.222.468-1.727-1.289-.972-1.727-1.257-1.23-2.135-1.57-2.355-1.221.124-1.568-.156-2.03-3.057-1.572-3.143 1.62.345 1.885.158-.718-1.648-1.1-2.199-1.504-.98-1.569-1.256 1.412-.785 1.412-.785-.605-.473-1.097-.314c-.164-.214.628-.942.628-.942s-.954-.145-1.572.471c-.255-.069.471-1.256.471-1.256s-.943-.56-1.569-.314c-.356-.137-1.122-.96-1.256-1.256s1.726-1.57 1.726-1.57-.772-.254-1.412 0c-.451-.2-1.928-1.866-1.57-2.043s2.982.785 2.982.785c.943-.785-3.926-4.081-3.926-4.081s-1.742-.427-2.511-.943-1.517-1.945-2.669-2.513l-4.241-1.884c-.839-.209-3.154.114-3.14.47s1.847 1.163 1.256 1.414c-2.062 1.234 1.329 2.361.942 2.668s-1.049.528-1.098 1.1c-.054.573 1.694 1.151 1.884 1.57s-.886.689-.158 1.101.131 1.611.787 1.884 2.516.179 2.511.471-1.009.227-1.571.313-.597 1.869.158 2.041 2.077.129 2.67.314.175.977.628 1.099 1.364.357 1.728.158-1.773-1.06-1.413-1.257 1.1-.002 1.1-.002z" fill="url(#P)" class="B"/><path d="M3.75 35.817c0-3.925.412-1.326.548-2.433.944 2.59-.785 4.395 2.277 6.045 0-.943-.469-.315-.94-1.572-.472-.471.94.392.94-.314-.469 0-.94-1.805-1.412-1.569.472-1.178-.314-1.807.156-2.984-1.412-.234-.156-2.433-.626-2.669-1.649-1.413-.394-4.006.55-5.891.098-.299-.097-.511-.339-.733-1.568 1.818-3.039 5.553-3.039 9.922.035 1.464.421 3.189 1.053 5.012-.11-3.757-.192-3.825.44-5.72-.55 1.651.156.787.392 2.907z" fill="url(#Q)" class="B"/></g><g class="G"><g fill="url(#R)"><path d="M33.901 55.495c-.34.003-1.015.331-.592.724.138.125.468.218.644.297.144.065.394.118.549.126.299.018.722-.126.714-.492-.01-.304-.52-.371-.552-.654h-.762z" class="B"/><path d="M32.018 45.013c-.34.003-1.017.332-.593.724.136.126.469.219.644.298a1.86 1.86 0 0 0 .548.125c.299.018.722-.124.713-.49-.008-.306-.519-.374-.55-.657h-.762z" class="B"/></g><path d="M36.519 44.587c-.134-.016-.384.107-.324.277.051.146.278.073.328.212.078.218-.363.241-.442.44-.096.248.235.399.397.597.198.246.375.385.699.382a.9.9 0 0 0 .594-.174c.212-.151.196-.453.166-.698-.034-.282-.124-.543-.314-.766-.127-.151-.401-.485-.614-.434l-.491.165z" class="B D"/><g class="E"><path d="M36.354 51.513c-.107.171-.421-.008-.533.338-.163.505.402.568.754.601.319.031.648.074.6-.394-.029-.319-.21-.356-.327-.6l-.493.054z" class="B"/><path d="M36.463 53.039c.01-.035.009-.07-.007-.104-.155.017-.109.169-.051.257.029.044.129.028.159.076.035.054.002.148.009.209.031.289.003.394.217.599.499.473.944-.568.274-.872l-.6-.166z" class="B"/></g><g fill="url(#U)"><path d="M37.01 55.002c-.1.206-.063.46 0 .656.041.129.103.188.111.34.008.159-.083.315-.059.465.048.303.306.184.4-.002.13-.255.115-.433.418-.383.197.032.387.13.561.082.233-.064.29-.351.222-.56-.077-.232-.323-.247-.498-.336-.072-.037-.14-.156-.228-.198-.093-.045-.18.006-.273-.064h-.654z" class="B"/><path d="M39.463 50.858c-.124.457-.362.83-.218 1.322.134.461.435.687.872.791.154.038.292.087.443.001.114-.064.196-.305.379-.305s.35.299.499.413c.368.282.299-.08.42-.317.055-.101.17-.13.158-.256-.008-.093-.198-.271-.262-.341-.232-.261-.401-.584-.653-.821-.199-.19-.61-.36-.875-.434l-.765-.054z" class="B"/></g><path d="M36.173 41.799c-.273.272-.032.622.106.823.147.212.431.386.657.488.302.135.983.467 1.299.203.38-.315-.211-.747-.377-.982-.257-.364-.407-.869-.978-.804l-.708.271z" class="B E"/><g class="D"><path d="M36.761 49.69c-.273.273-.03.621.107.821.145.214.433.389.657.49.301.133.983.468 1.298.204.378-.317-.208-.749-.374-.981-.258-.365-.409-.873-.98-.806 0 .002-.437.002-.71.273z" class="B"/><path d="M24.159 29.552c-.272.271-.032.62.106.82.147.214.43.387.66.49.299.136.981.467 1.295.203.38-.315-.21-.747-.374-.981-.261-.364-.407-.869-.978-.804 0-.002-.436-.002-.71.271z" class="B"/></g><path d="M26.985 34.026c-.274.272-.033.619.106.822.144.213.433.386.658.489.301.133.982.466 1.298.203.379-.316-.209-.747-.377-.981-.256-.364-.405-.869-.977-.805 0 .002-.437.002-.709.272z" class="B E"/><path d="M2.208 31.959c-.351-.022-.415.351-.453.567-.04.228.034.531.119.746.108.286.341.955.715 1.014.446.07.337-.594.379-.847.061-.398.286-.804-.126-1.158 0 .003-.284-.295-.634-.319z" fill="url(#V)" class="B"/><path d="M32.048 39.134c-.165.08-.416.621-.388.806.061.385.471.579.716.828.133.132.162.193.33.277.124.061.235.073.366.106.231.054.404.139.654.113.215-.023.47-.103.505-.332.019-.122-.075-.113-.018-.232.057-.114.143-.113.234-.148.17-.064.406-.082.603-.058.282.035.282.041.551-.142-.222.248-.17.647.154.759.254.087.748-.019.985-.134.378-.181.283-.489-.001-.699-.242-.179-.673-.286-.973-.282-.071-.251-.149-.67-.387-.799-.354-.187-.846-.219-1.206-.055-.229.103-.16.219-.214.429-.072.269-.293.169-.482.038-.152-.106-.653-.489-.829-.312l-.599-.163z" class="B D"/><path d="M24.927 31.596c-.142.08-.357.621-.334.807.052.383.404.579.616.827.114.132.137.193.281.276.107.061.202.074.313.107.2.055.347.14.563.112.181-.022.401-.103.433-.331.016-.122-.064-.111-.016-.229s.122-.116.203-.151c.142-.065.349-.082.514-.058.246.035.247.041.474-.142-.192.248-.146.647.134.76.215.087.641-.02.843-.132.325-.184.242-.493-.003-.702-.206-.178-.574-.283-.833-.282-.061-.25-.126-.671-.334-.796-.302-.189-.724-.222-1.034-.058-.196.103-.136.219-.183.431-.06.267-.251.167-.412.036-.13-.107-.564-.489-.714-.313l-.511-.16z" class="B H"/><path d="M24.632 33.68c.04.006.057-.007.047-.042-.281-.052-.97-.01-1.035.367-.05.291.328.441.55.483.278.055.5.141.764.239.208.077.418.145.654.1.14-.028.424-.178.483-.328.133-.327-.479-.703-.756-.655l-.708-.166z" class="B E"/><path d="M35.466 48.05c.041.006.058-.008.051-.042-.283-.051-.971-.01-1.036.367-.051.291.328.441.55.482.277.055.502.142.764.24.207.075.416.145.653.098.14-.026.423-.177.483-.328.134-.325-.48-.702-.754-.654l-.71-.163z" fill="url(#X)" class="B"/><path d="M34.173 46.518c.04.007.058-.008.048-.041-.283-.05-.97-.009-1.035.367-.052.291.327.44.549.483.278.054.501.142.765.241.205.076.416.145.653.098.14-.027.423-.178.484-.328.133-.325-.48-.703-.758-.655l-.708-.163z" class="B D"/><path d="M23.978 32.21c-.127.226-.74-.202-.957-.103-.136.064-.139.19-.134.318.005.267.213.377.424.492.221.124.833.426.988.055.102-.248-.26-.55-.483-.492l.165-.271z" fill="url(#X)" class="B"/><path d="M22.615 29.701c-.301.234-.409.389-.223.82.12.273.37.381.593.555.168.13.292.295.502.372.579.21.218-1.16-.219-1.31l-.653-.436z" fill="url(#Y)" class="B"/><path d="M21.088 27.138c-.056.159-.243.079-.317.227-.114.224.148.362.277.466.386.319.695.783 1.119 1.065.111.074.282.193.385-.013.076-.15-.093-.325-.155-.448-.113-.23-.381-.656-.6-.806l-.71-.491z" class="B I"/><path d="M31.612 36.843c-.242 0-.732-.103-.864.164-.17.341.252.712.472.884.268.216.469.413.759.585.145.087.236.174.391.222.2.061.455.09.663.109.498.052 1.042-.402.767-.93-.086-.16-.302-.225-.432-.335-.145-.125-.257-.292-.407-.415-.096-.08-.252-.235-.367-.277-.152-.058-.296.003-.438-.119l-.547.108z" class="B H"/><path d="M3.874 30.052c-.118-.164-.291-.538-.502-.523-.27.018-.275.449-.27.664.01.266-.003.479.036.743.022.132.017.227.064.351.062.16.167.345.254.492.207.357.72.547.881.158.05-.122-.018-.293-.018-.425 0-.145.041-.286.04-.437-.003-.095.009-.261-.021-.354-.04-.125-.144-.201-.144-.344l-.318-.322z" fill="url(#Z)" class="B"/><path d="M40.336 55.765c-.195.002-.35.01-.536.066-.113.166.092.756.206.918.11.153.284.164.439.119.201-.058.332-.098.547-.12.196-.021.67-.1.75-.329.098-.273-.53-.542-.751-.492l-.654-.163z" class="B H"/><path d="M30.799 35.855c-.837 0-1.765-.026-2.376.585.356.452 3.276-.134 3.199-.113l-.823-.473z" class="B E"/><path d="M30.21 30.792c-.377.159-1.21-.278-1.75-.215-.142.852 1.312.969 1.845 1.179.236 1.288 2.429.805 2.123-.591-.373-.095-.45-.476-.923-.374h-1.296z" fill="url(#U)" class="B"/><path d="M25.498 26.789c-.191.3-1.251.035-1.536-.11-.04-.023-.401-.377-.443-.418-.165-.158-.182-.285-.374-.419s-.599-.341-.807-.336c-.08.546-.039.87.333 1.258.208.216.272.198.358.494.07.251-.057.463.083.712.265.471.979.508 1.442.613.671.149.802.094.844-.6.318-.111.837.158 1.162.192.595.059.812-.36.235-.683l-1.295-.704z" class="B H"/><path d="M42.812 59.882a.68.68 0 0 0 .128.145c-.543.534.283 1.779.686 2.121.549.465.812.077.629-.512-.105-.345-.32-.91-.62-1.165l-.823-.588z" class="B D"/><path d="M41.868 61.767c0 .677-.077 1.282.264 1.887.236.418.779 1.248 1.368 1.039.084-.376-.091-.987-.454-1.158l-1.178-1.767z" class="B I"/></g><g class="C F"><g stroke="#29211a" fill="#c0bebf"><path d="M39.396 40.33s.237-.588.825.708 1.414 4.121 1.765 5.181.827 3.415.827 3.415-.354-.47-.59-1.059-2.12-6.361-2.236-6.832-.59-1.413-.59-1.413zm.942-.469s.236-.588.824.706 1.413 4.123 1.768 5.182.824 3.417.824 3.417-.353-.473-.587-1.062a224.54 224.54 0 0 1-2.239-6.831c-.117-.47-.588-1.412-.588-1.412z" class="B"/><path d="M43.599 48.905s.059-.55.903.359 2.284 3.012 2.861 3.789 1.586 2.589 1.586 2.589-.429-.292-.786-.713c-.353-.421-3.467-4.662-3.688-5.019s-.876-1.004-.876-1.004zm-5.406-17.75s.23-.502.743.627 1.207 3.579 1.508 4.501.682 2.957.682 2.957-.313-.413-.517-.925a185.05 185.05 0 0 1-1.906-5.931c-.1-.409-.512-1.229-.512-1.229zm3.488 10.168s.178-.381.797.357 1.541 2.387 1.928 3 .962 2.009.962 2.009-.354-.254-.604-.594-2.323-3.688-2.46-3.966-.623-.807-.623-.807zm3.139 10.519s.181-.38.797.357 1.543 2.386 1.928 3.002.962 2.008.962 2.008-.352-.254-.603-.593-2.323-3.688-2.459-3.967-.626-.805-.626-.805zM32.572 25.617s.179-.381.797.357 1.542 2.387 1.929 3.002.961 2.007.961 2.007-.352-.254-.604-.592-2.321-3.691-2.457-3.968-.626-.808-.626-.808zm.47 2.04s.18-.38.796.357 1.541 2.387 1.93 3.002.959 2.011.959 2.011-.352-.257-.602-.594a109.26 109.26 0 0 1-2.459-3.965c-.136-.276-.626-.81-.626-.81zm6.683 5.382s.23-.5.742.627 1.207 3.579 1.509 4.501.684 2.959.684 2.959-.316-.415-.519-.927-1.809-5.522-1.906-5.929-.511-1.231-.511-1.231z" class="B"/></g><path d="M7.363 20.546s.824-.943.824-1.649-.148-2.503-.384-3.798.206-5.152.206-5.152l4.771 1.649s2.198.117 2.904.352 2.633.119 2.633 1.414-1.18 2.472-1.061 3.415l.353 2.826-3.534 6.832-2.944 3.416-4.239-4.004-.235-3.535.706-1.766z" fill="url(#a)" class="B"/><path d="M12.779 11.595c-.617-.354-.298-.252-.862-.739l-3.908-.911-.236 2.818c1.809-1.393 3.594-.963 5.007-1.169z" fill="url(#b)" class="B"/><path d="M11.6 2.88l3.653-.706c1.177-.119 3.18.706 3.18.706l4.239 2.238c.709.588 1.649 1.06 2.474 2.237s1.06 2.709 1.06 2.709l-4.843-4.213-6.058-1.56-3.113-.234c-.002 0-1.652-.941-.593-1.178z" fill="url(#c)" class="B"/><path d="M11.837 11.478c.707 0 1.649.235 1.649.705.922 1.847 1.571 4.163 4.397 4.633.317-.711.433-2.609.433-3.453 0-1.296-.708-1.884-1.413-2.12s-2.632-.078-2.632-.078l-2.353-.306c.306.341.091-.061-.08.621z" fill="url(#d)" class="B"/><path d="M18.433 5.118s.588-.47 1.65-.354 2.943 1.414 3.648 2.003 1.415.588 1.887 1.295.824 1.886.942 3.298l.235 2.592-8.716-8.126.353-.707z" fill="url(#e)" class="B"/><path d="M9.951 9.71c.791-.214.508-2.73.38-3.324-.104-.489-.266-.957-.523-1.383-.261-.432-.766-1.044-.801-1.535l4.36 2.827 1.649 3.063-5.066.352z" fill="#362d2b" class="B"/><path d="M25.381 13.833c.555.259.638.846.571 1.397-.674.096-.921.108-.719.867.162.603.445.828.365 1.488-.182.009-.381.002-.562.035.195.396.52 1.015.262 1.471-.243-.117-.325-.392-.488-.537.073.199.235.825.077 1.026-.286.363-.607-.009-.904-.081-.065.686.639 1.127-.469 1.184-.119.322.176.489.082.789-.122-.02-.312.054-.436.035-.026.125-.078.434.006.547.153.199.303.035.454.134.232.152.72.65.721.93.309-.026.471.096.576.373.047.116.127.726.089.825-.17.464-.924.296-1.25.252-.068.702-1.372.087-1.348.798-.192-.293-.81-.303-1.152-.344-.225-.029-.463.026-.68.024-.025-.002-.185.068-.258.069-.171.002-.249-.151-.454-.074a1.89 1.89 0 0 1-.044.193c-.397.203-.67-.009-1.033.042-.335.049-.499.369-.819.456-.379.103-.694-.146-1.067-.127-.358.019-.727.259-1.057.245-.467-.021-.682-.293-.71-.713-.041-.627.49-1.014.909-1.443.544-.557.8-1.291 1.329-1.859.372-.398.953-.617 1.4-.936-.055-.355-.773-.249-1.044-.355-.455-.176-.654-.567-.83-1.055-.201-.567-.053-1.184-.114-1.773-.046-.423-.404-.917-.118-1.294l4.828-.47.943-4.122 2.001-.707.94 2.712z" fill="url(#f)" class="B"/><path d="M19.728 7.943s1.295-.234 1.885.118 2.237 1.177 3.061 2.239 1.885 2.943 2.004 3.298l.585 1.647-.115.708-1.531-1.649c-.588-.706-1.651-2.709-2.12-3.298s-2.238-1.06-2.709-1.532-1.063-1.533-1.063-1.533z" fill="url(#c)" class="B"/><path d="M20.083 8.415c.499.193.995.385 1.402.741-.034.042-.063.142-.097.18.334 0 .75.145 1.021.257.29.123.515.531.814.596l-.392-.135c.264.286 1.516.587 1.238 1.291-.131.005-.285.051-.419.008.279.082.541.789.538 1.05-.304.074-.434-.29-.774-.225.59.251.845 1.078.771 1.641a.6.6 0 0 1-.432-.179c-.117.43.755 1.974-.237 2.096-.018.296-.036 1.331-.468 1.261-.018-.071-.111-.203-.114-.209.093.866-.717.544-1.038.09.232.312.559.914-.046.965-.462.038-.571-.605-1.019-.702.149.359.117.683-.19.917-.388-.084-.785-.563-1.126-.558.016.122-.059.313-.041.439-.479.177-1.14-.351-1.608-.478-.174-.484-.549-.835-.613-1.39-.079-.677.078-1.274.234-1.89.306-1.213-1.568-2.87-1.614-2.837-.502-.402-1.371-1.474-1.829-1.927l1.679-.058-2.357-4.944 5.652 1.65 1.061 2.354z" fill="url(#g)" class="B"/><path d="M0 10.241c.06.147.148.118.472.206s7.124.175 7.772.412 2.738.442 3.238.619 2.239.941 2.239.941-2.122-2.355-1.914-2.62 2.235-.383 2.235-.383-1.147-.824-1.737-.943-2.472-.353-3.121-.293S-.058 10.094 0 10.241z" fill="url(#h)" class="B"/><path d="M0 10.241c.06.147.618-.118.941-.031s6.655-.058 7.303.178 2.738.442 3.238.619 2.239 1.412 2.239 1.412-2.122-2.355-1.914-2.62 2.235-.383 2.235-.383-1.147-.824-1.737-.943-2.472-.353-3.121-.293S-.058 10.094 0 10.241z" fill="url(#i)" class="B"/><path d="M2.383.054c.15-.089.856-.059 1.298.028s6.36 2.178 6.89 2.355 2.532-.029 2.62.03-.824.735-.824 1-.294.854.058 1.002.855.706 1.061.882l1.972 1.856c.147.293 2.031 2.856 2.031 2.856s-1.547-.653-2.257-.677c-.336-.013.247.663-.083.602-.505-.097-.94-.446-1.106-.573-.497-.383-2.178-3.121-2.501-3.414S9.45 4.38 8.833 4.057 2.236.142 2.381.054z" fill="url(#j)" class="B"/><path d="M7.714 19.721s-2.707 3.063-2.707 4.359.118 3.179.588 3.767.942.471 1.179 1.177-.237 2.002.353 3.298 2.118 3.063 2.354 3.417.119 1.178.119 1.178-.471 1.884 0 2.236 2.826 0 3.179-1.295l1.178-4.592c.116-.589-.353-.354-.118-1.532s4.24-5.771 4.24-6.241-1.413-.235-1.413-.235l-.942-.236 2.238-2.238c.708-.823 2.473-1.06 2.473-1.06l.354-1.177c.706-.472.117-1.178.117-1.178s-.823-.237-1.766-.118-3.062-1.062-3.298-.236-1.414 2.357-2.237 3.415-1.412 4.24-1.412 4.24l-.472 1.649s-.471-1.177-.827-1.177-.352-.352-1.057.237-2.473-2.005-2.592-2.709-.116-2.121 0-1.768.354-.237.588-.941-.116-2.238-.116-2.238z" fill="url(#k)" class="B"/><path d="M12.509 4.603c-.326-.293-.611-.486-.553-.663.118-.354 1.846-.663 1.846-.663l1.674-.12c.103.023-.407.116-.706.293-.254.15-.409.341-.343.37.073.032.653-.235 1.199-.359.561-.125 1.089-.107 1.158-.111.079-.005-.226.21-.361.406-.105.145-.055.282.007.301.214.069.505-.098.751-.105.367-.015.713.074.781.105.124.056-.018.299.037.33.025.013.647-.019.923.032s.655.229.707.238c.104.023-.323.353-.256.46s.405.92.237.943-2.12.47-2.12.47-.855.248-1.06.236-1.093-.581-1.295-.589-.237.118-.825.118-.269-1.017-1.225-.888c-.299.042-.253-.508-.577-.804z" fill="url(#l)" class="B"/></g><path d="M3.946.642c.235.353 4.71 2.708 5.417 3.179s2.003.942 2.474 1.061.47-.235.47-.235l-.587-.354s-1.295-.708-2.475-1.178C7.862 2.563 3.709.288 3.946.642z" fill="url(#m)" class="B G"/><g class="C F"><path d="M20.244 6.53c.636.37.89 1.48.508 2.096s-1.649.739-2.155.37-.889-1.48-.507-2.096 1.522-.74 2.154-.37z" fill="url(#n)" class="B"/><path d="M20.083 6.178c.586.353.823 1.414.47 2.003s-1.532.706-2.002.354-.825-1.416-.472-2.004 1.412-.705 2.003-.353z" fill="url(#o)" class="B"/></g><path d="M19.714 6.819c0 .17-.134.309-.296.309s-.296-.139-.296-.309.133-.305.296-.305.297.136.297.305z" fill="#cac8b9" class="B G"/></symbol></svg>