<svg xmlns="http://www.w3.org/2000/svg" xmlns:xlink="http://www.w3.org/1999/xlink" viewBox="0 0 104.167 113.125" fill="#fff" fill-rule="evenodd" stroke="#000" stroke-linecap="round" stroke-linejoin="round"><use xlink:href="#A" x="2.083" y="2.083"/><symbol id="A" overflow="visible"><g stroke="none" fill-rule="nonzero"><path d="M38.954 27.766c-3.958-2.843-6.317-7.408-6.346-12.281A15.76 15.76 0 0 1 48.64.019c8.382.021 15.348 6.466 16.019 14.821.367 6.525.013 13.163.013 19.698v3.552c3.125 3.75 8.371 11.262 12.333 33.333.833 4.638 9.229 25.417 9.864 33.333-1.646.792-3.287 3.967-4.933 4.758-.858-3.546-10.146-25.26-14.798-28.554-1.511-1.045-3.175-1.848-4.933-2.379l-11.312-3.958a12.6 12.6 0 0 1-5.954 1.556c-9.535 0-17.265-11.187-17.265-24.983 0-10.75 4.7-19.883 11.277-23.408z" fill="#d22f27"/><path d="M30.883 19.608l-.006-.031 3.619 4.625c-1.594 1.487-3.775 2.175-5.933 1.872s-4.066-1.564-5.189-3.432z" fill="#f1b31c"/><use xlink:href="#C" fill="#d22f27"/><path d="M37.421 42.173l-.038.675a24.53 24.53 0 0 0 1.94 9.502 40.51 40.51 0 0 0 11.665 14.69 53.1 53.1 0 0 0 14.387 8.748 49.54 49.54 0 0 0 10.798 2.904c.604 2.486 2.021 6.917 1.337 8.575-1.146 2.796-12.062-.99-14.515-1.958-5.23-2.132-10.087-5.085-14.387-8.748-4.984-3.917-8.979-8.948-11.665-14.69a24.53 24.53 0 0 1-1.94-9.502 21.66 21.66 0 0 1 2.417-10.194z" fill="#1e50a0"/><path d="M32.76 7.225c-2.357 3.675-3.022 8.186-1.825 12.385L21 23.6a15.59 15.59 0 0 1-.167-2.163A13.85 13.85 0 0 1 32.76 7.225z" fill="#fcea2b"/><path d="M37.5 5.309c-.26-.037-.569-.042-.85-.062-2.96 3.172-4.406 7.469-3.965 11.785s2.726 8.232 6.267 10.74l-.535.321c4.525-.402 8.699-2.606 11.583-6.117a13.74 13.74 0 0 0 2.083-4.167c-.783-1.631-5.55-11.188-14.583-12.5z"/></g><g fill="none" stroke-width="4.167"><use xlink:href="#C" stroke-linejoin="miter"/><path d="M30.933 19.608L21 23.6a15.59 15.59 0 0 1-.167-2.163A13.85 13.85 0 0 1 32.76 7.225m50.094 88.542a51.82 51.82 0 0 1 1.931 8.948c-1.587.792-3.173 3.967-4.758 4.758a105.05 105.05 0 0 0-4.754-12.144c-1.506-3.381-3.437-5.74-5.071-8.687M34.494 24.2a7.23 7.23 0 0 1-5.934 1.872c-2.159-.303-4.066-1.564-5.189-3.432M45.2 78.225v14.583m46.646 0H100M0 93.167h62.5M44.333 76.142c-9.198 0-16.656-11.187-16.656-24.983 0-10.75 4.533-19.883 10.881-23.41A15.44 15.44 0 0 1 47.904 0a15.79 15.79 0 0 1 15.454 14.821c.25 4.619.152 9.292.073 13.946l-.062 5.75v3.552M38.952 27.767l-.535.321c4.525-.401 8.698-2.604 11.583-6.112a13.74 13.74 0 0 0 2.083-4.167c-.783-1.631-5.55-11.187-14.583-12.5-.26-.037-.569-.042-.85-.062"/><path d="M57.7 84.475v8.333"/></g></symbol><defs ><path id="C" d="M35.004 52.366c-.021-7.469 3.375-14.827 10.798-17.881a14.99 14.99 0 0 1 11.473-.008c6.194 2.658 9.59 9.298 11.902 15.629a138.96 138.96 0 0 1 5.438 19.542c.55 2.658.908 5.369 1.344 8.048.333 2.042 2.337 7.656 1.552 9.571-1.146 2.796-12.063-.989-14.515-1.958-5.231-2.133-10.088-5.087-14.388-8.75-4.984-3.917-8.979-8.948-11.665-14.69a24.52 24.52 0 0 1-1.94-9.502z"/></defs></svg>